<?xml version="1.0" encoding="UTF-8"?>
<svg id="Stacked" xmlns="http://www.w3.org/2000/svg" viewBox="0 0 398.31 164.1">
  <defs>
    <style>
      .cls-1 {
        fill: #85e6d6;
      }

      .cls-2 {
        fill: #fff;
      }
    </style>
  </defs>
  <path class="cls-2" d="M43,.9h14.94v42.6h-14.94V.9ZM15.34.9H.4v42.6h14.94V.9ZM95.71,27.3c.62,1.04,1.35,2.25,2.19,3.63.84,1.38,1.71,2.8,2.61,4.26s1.73,2.82,2.49,4.08c.76,1.26,1.62,2.67,2.58,4.23h16.44c-1.12-1.84-2.12-3.49-3-4.95s-1.82-3-2.82-4.62-1.95-3.17-2.85-4.65c-.9-1.48-1.63-2.69-2.19-3.63-.56-.94-.86-1.43-.9-1.47-.44-.76-.67-1.42-.69-1.98s.19-1.2.63-1.92L122.02.9h-16.44c-.96,1.56-1.82,2.97-2.58,4.23s-1.59,2.63-2.49,4.11c-.9,1.48-1.77,2.91-2.61,4.29s-1.57,2.59-2.19,3.63-1.05,1.74-1.29,2.1c-.68,1.12-1.01,2.1-.99,2.94s.35,1.84.99,3c.24.36.67,1.06,1.29,2.1h0ZM42.1,43.5L34.06,7.74c-.36-1.96-1.31-3.59-2.85-4.89-1.54-1.3-3.35-1.95-5.43-1.95h-9.54l9.6,42.6s16.26,0,16.26,0ZM63.07,15.84c1.26.76,2.67,1.14,4.23,1.14s2.98-.38,4.26-1.14,2.3-1.78,3.06-3.06c.76-1.28,1.14-2.7,1.14-4.26s-.38-2.99-1.14-4.29-1.78-2.33-3.06-3.09-2.7-1.14-4.26-1.14-2.97.38-4.23,1.14-2.27,1.79-3.03,3.09-1.14,2.73-1.14,4.29.38,2.98,1.14,4.26c.76,1.28,1.77,2.3,3.03,3.06ZM91.6.9h-14.94v42.6h14.94V.9Z"/>
  <path class="cls-1" d="M12.88,82.38l20.34,21.12-8.58.06-17.73-19.32h-.21v19.26H.4v-42.6h6.3v18.78h2.24l16.3-18.78h7.5s-19.86,21.48-19.86,21.48ZM50.56,72.69c-1.12.3-2.18.76-3.18,1.38-1,.62-1.94,1.37-2.82,2.25-.14.14-.28.3-.42.45v-4.47l-6.12.9v30.3h6.12v-22.67c.46-.32.93-.62,1.41-.88.62-.34,1.24-.63,1.86-.87.62-.24,1.25-.45,1.89-.63s1.31-.31,2.01-.39c.7-.08,1.43-.1,2.19-.06l.72-5.64c-1.32-.08-2.54.03-3.66.33ZM60.88,66.9c.64.36,1.34.54,2.1.54s1.45-.18,2.07-.54,1.11-.86,1.47-1.5.54-1.34.54-2.1-.18-1.45-.54-2.07-.85-1.12-1.47-1.5-1.31-.57-2.07-.57-1.46.19-2.1.57-1.15.88-1.53,1.5-.57,1.31-.57,2.07.19,1.46.57,2.1.89,1.14,1.53,1.5ZM59.8,103.5h6.12v-31.2l-6.12.9v30.3ZM90.88,77.94c1.12,0,2.08.15,2.88.45.8.3,1.46.75,1.98,1.35.52.6.9,1.36,1.14,2.28s.36,2,.36,3.24v18.24h6.12v-19.5c0-2.72-.38-4.94-1.14-6.66s-1.9-3-3.42-3.84-3.44-1.26-5.76-1.26c-1.72,0-3.43.27-5.13.81s-3.31,1.31-4.83,2.31c-.58.38-1.14.8-1.68,1.23v-4.29l-6.12.9v30.3h6.12v-22.79c.59-.34,1.19-.66,1.83-.94.86-.38,1.72-.71,2.58-.99s1.72-.49,2.58-.63,1.69-.21,2.49-.21ZM120.03,116.52c-1.28-.16-2.51-.39-3.69-.69s-2.31-.67-3.39-1.11l-.66-5.28c1.24.52,2.5.95,3.78,1.29s2.55.58,3.81.72,2.49.21,3.69.21c1.8,0,3.33-.19,4.59-.57s2.28-.96,3.06-1.74,1.36-1.74,1.74-2.88c.38-1.14.57-2.47.57-3.99v-1.64c-1.13.83-2.27,1.49-3.42,1.94-2.12.84-4.26,1.26-6.42,1.26-2.8,0-5.18-.61-7.14-1.83s-3.45-2.94-4.47-5.16c-1.02-2.22-1.53-4.85-1.53-7.89,0-2.72.4-5.13,1.2-7.23.8-2.1,1.91-3.86,3.33-5.28s3.03-2.51,4.83-3.27c1.8-.76,3.7-1.14,5.7-1.14,1.16,0,2.24.07,3.24.21s1.93.33,2.79.57c.73.2,1.42.45,2.08.73l5.87-1.51v31.08c0,2.64-.59,4.97-1.77,6.99s-2.93,3.6-5.25,4.74-5.18,1.71-8.58,1.71c-1.36,0-2.68-.08-3.96-.24h0ZM133.53,96.59v-18.29c-.3-.11-.61-.23-.9-.33-.96-.3-1.9-.53-2.82-.69-.92-.16-1.86-.24-2.82-.24-1.6,0-3.03.25-4.29.75s-2.32,1.21-3.18,2.13c-.86.92-1.52,2.09-1.98,3.51-.46,1.42-.69,3.05-.69,4.89,0,2.48.33,4.51.99,6.09.66,1.58,1.68,2.76,3.06,3.54s3.11,1.17,5.19,1.17c.76,0,1.49-.08,2.19-.24.7-.16,1.42-.39,2.16-.69s1.51-.68,2.31-1.14c.25-.14.52-.3.78-.46h0ZM160.74,87.1l14.25-14.2h-7.5l-10.27,11.28h-2.21v-25.98l-6.12.9v44.4h6.12v-14.7h.1l12.26,14.7h7.92l-14.55-16.4h0ZM195.54,100.86c-1.1,1.04-2.36,1.84-3.78,2.4s-3.11.84-5.07.84c-2.12,0-3.89-.4-5.31-1.2-1.42-.8-2.48-1.85-3.18-3.15s-1.05-2.71-1.05-4.23c0-1.6.45-3.07,1.35-4.41s2.27-2.45,4.11-3.33c1.84-.88,4.16-1.4,6.96-1.56l7.01-.47v-1.5c0-1.16-.11-2.17-.35-3.03s-.64-1.57-1.2-2.13-1.33-.98-2.31-1.26-2.19-.42-3.63-.42c-.8,0-1.61.03-2.43.09-.82.06-1.65.17-2.49.33s-1.71.36-2.61.6-1.85.54-2.85.9l.72-5.1c1-.4,2.05-.75,3.15-1.05,1.1-.3,2.27-.53,3.51-.69,1.24-.16,2.5-.24,3.78-.24,1.76,0,3.34.16,4.74.48,1.4.32,2.61.78,3.63,1.38s1.85,1.34,2.49,2.22c.64.88,1.12,1.9,1.44,3.06.32,1.16.48,2.44.48,3.84l-.12,12.36c-.04,1.48.18,2.54.66,3.18.48.64,1.26.96,2.34.96.24,0,.52-.02.84-.06.32-.04.66-.12,1.02-.24l-.66,4.02c-.2.08-.43.15-.69.21-.26.06-.55.13-.87.21-.32.08-.65.13-.99.15-.34.02-.69.03-1.05.03-1.28,0-2.42-.21-3.42-.63s-1.78-1.1-2.34-2.04c-.3-.5-.51-1.09-.65-1.77-.38.44-.77.87-1.18,1.26h0ZM193.44,98.34c.74-.36,1.44-.8,2.1-1.32.35-.28.68-.6,1-.94l.03-5.96h-5.25c-1.96,0-3.52.16-4.68.48-1.16.32-2,.82-2.52,1.5s-.78,1.62-.78,2.82c0,.92.2,1.71.6,2.37s.99,1.17,1.77,1.53,1.73.54,2.85.54c.88,0,1.73-.08,2.55-.24.82-.16,1.6-.42,2.34-.78h-.01ZM230.25,102c1.16-.72,2.07-1.66,2.73-2.82.66-1.16.99-2.54.99-4.14,0-1.2-.17-2.23-.51-3.09s-.81-1.61-1.41-2.25-1.3-1.19-2.1-1.65-1.64-.85-2.52-1.17c-.64-.2-1.27-.41-1.89-.63-.62-.22-1.24-.42-1.86-.6s-1.22-.37-1.8-.57-1.11-.42-1.59-.66c-.52-.28-.99-.58-1.41-.9s-.76-.7-1.02-1.14c-.26-.44-.39-.94-.39-1.5,0-.64.14-1.19.42-1.65s.7-.85,1.26-1.17,1.23-.56,2.01-.72,1.67-.24,2.67-.24c.44,0,.92.02,1.44.06s1.09.11,1.71.21c.62.1,1.24.23,1.86.39.62.16,1.25.34,1.89.54.64.2,1.22.42,1.74.66l.42-4.86c-.76-.32-1.51-.6-2.25-.84s-1.49-.44-2.25-.6c-.76-.16-1.51-.27-2.25-.33-.74-.06-1.47-.09-2.19-.09-1.8,0-3.44.19-4.92.57s-2.77.94-3.87,1.68c-1.1.74-1.95,1.68-2.55,2.82s-.9,2.49-.9,4.05c0,1.12.16,2.11.48,2.97.32.86.74,1.59,1.26,2.19.52.6,1.13,1.13,1.83,1.59s1.45.85,2.25,1.17c.44.16.9.32,1.38.48.48.16.95.31,1.41.45s.91.28,1.35.42.87.28,1.29.42.83.27,1.23.39c.56.2,1.08.43,1.56.69s.89.54,1.23.84c.34.3.6.65.78,1.05s.27.84.27,1.32c0,1-.33,1.79-.99,2.37s-1.52.99-2.58,1.23c-1.06.24-2.19.36-3.39.36-.64,0-1.35-.05-2.13-.15s-1.6-.24-2.46-.42-1.74-.4-2.64-.66-1.81-.55-2.73-.87l.24,5.1c1.04.36,1.99.65,2.85.87s1.68.41,2.46.57c.78.16,1.54.26,2.28.3s1.49.06,2.25.06c1.76,0,3.42-.17,4.98-.51,1.56-.34,2.92-.87,4.08-1.59h0ZM256.98,98.67c-.34.06-.68.12-1.02.18s-.67.1-.99.12c-.32.02-.62.03-.9.03-1.04,0-1.93-.18-2.67-.54s-1.31-.89-1.71-1.59-.6-1.55-.6-2.55v-16.62h8.46l.66-4.8h-9.12v-9.48l-6.12,2.16v7.32h-4.62l-.66,4.8h5.28v17.88c0,1.36.18,2.53.54,3.51.36.98.83,1.79,1.41,2.43.58.64,1.26,1.14,2.04,1.5s1.61.62,2.49.78c.88.16,1.74.24,2.58.24.64,0,1.27-.02,1.89-.06.62-.04,1.19-.1,1.71-.18s1.01-.17,1.47-.27.85-.19,1.17-.27l.36-4.98c-.2.08-.44.15-.72.21s-.59.12-.93.18h0ZM264.99,103.5h6.12v-31.2l-6.12.9v30.3ZM270.24,59.73c-.62-.38-1.31-.57-2.07-.57s-1.46.19-2.1.57-1.15.88-1.53,1.5-.57,1.31-.57,2.07.19,1.46.57,2.1.89,1.14,1.53,1.5c.64.36,1.34.54,2.1.54s1.45-.18,2.07-.54,1.11-.86,1.47-1.5c.36-.64.54-1.34.54-2.1s-.18-1.45-.54-2.07c-.36-.62-.85-1.12-1.47-1.5ZM303.99,73.5c-1.52-.84-3.44-1.26-5.76-1.26-1.72,0-3.43.27-5.13.81s-3.31,1.31-4.83,2.31c-.58.38-1.14.8-1.68,1.23v-4.29l-6.12.9v30.3h6.12v-22.79c.58-.34,1.19-.66,1.83-.94.86-.38,1.72-.71,2.58-.99s1.72-.49,2.58-.63,1.69-.21,2.49-.21c1.12,0,2.08.15,2.88.45.8.3,1.46.75,1.98,1.35.52.6.9,1.36,1.14,2.28.24.92.36,2,.36,3.24v18.24h6.12v-19.5c0-2.72-.38-4.94-1.14-6.66-.76-1.72-1.9-3-3.42-3.84h0ZM338.92,73.75l5.87-1.51v31.08c0,2.64-.59,4.97-1.77,6.99s-2.93,3.6-5.25,4.74-5.18,1.71-8.58,1.71c-1.36,0-2.68-.08-3.96-.24s-2.51-.39-3.69-.69-2.31-.67-3.39-1.11l-.66-5.28c1.24.52,2.5.95,3.78,1.29s2.55.58,3.81.72,2.49.21,3.69.21c1.8,0,3.33-.19,4.59-.57s2.28-.96,3.06-1.74,1.36-1.74,1.74-2.88c.38-1.14.57-2.47.57-3.99v-1.64c-1.13.83-2.27,1.49-3.42,1.94-2.12.84-4.26,1.26-6.42,1.26-2.8,0-5.18-.61-7.14-1.83-1.96-1.22-3.45-2.94-4.47-5.16-1.02-2.22-1.53-4.85-1.53-7.89,0-2.72.4-5.13,1.2-7.23.8-2.1,1.91-3.86,3.33-5.28s3.03-2.51,4.83-3.27c1.8-.76,3.7-1.14,5.7-1.14,1.16,0,2.24.07,3.24.21s1.93.33,2.79.57c.73.2,1.42.45,2.08.73h0ZM338.73,96.59v-18.29c-.3-.11-.61-.23-.9-.33-.96-.3-1.9-.53-2.82-.69s-1.86-.24-2.82-.24c-1.6,0-3.03.25-4.29.75s-2.32,1.21-3.18,2.13-1.52,2.09-1.98,3.51c-.46,1.42-.69,3.05-.69,4.89,0,2.48.33,4.51.99,6.09.66,1.58,1.68,2.76,3.06,3.54s3.11,1.17,5.19,1.17c.76,0,1.49-.08,2.19-.24.7-.16,1.42-.39,2.16-.69s1.51-.68,2.31-1.14c.25-.14.52-.3.78-.46h0ZM373.05,89.7c-.6-.64-1.3-1.19-2.1-1.65-.8-.46-1.64-.85-2.52-1.17-.64-.2-1.27-.41-1.89-.63-.62-.22-1.24-.42-1.86-.6s-1.22-.37-1.8-.57-1.11-.42-1.59-.66c-.52-.28-.99-.58-1.41-.9s-.76-.7-1.02-1.14c-.26-.44-.39-.94-.39-1.5,0-.64.14-1.19.42-1.65s.7-.85,1.26-1.17,1.23-.56,2.01-.72,1.67-.24,2.67-.24c.44,0,.92.02,1.44.06s1.09.11,1.71.21,1.24.23,1.86.39c.62.16,1.25.34,1.89.54.64.2,1.22.42,1.74.66l.42-4.86c-.76-.32-1.51-.6-2.25-.84s-1.49-.44-2.25-.6c-.76-.16-1.51-.27-2.25-.33-.74-.06-1.47-.09-2.19-.09-1.8,0-3.44.19-4.92.57s-2.77.94-3.87,1.68-1.95,1.68-2.55,2.82c-.6,1.14-.9,2.49-.9,4.05,0,1.12.16,2.11.48,2.97s.74,1.59,1.26,2.19c.52.6,1.13,1.13,1.83,1.59.7.46,1.45.85,2.25,1.17.44.16.9.32,1.38.48s.95.31,1.41.45.91.28,1.35.42.87.28,1.29.42.83.27,1.23.39c.56.2,1.08.43,1.56.69s.89.54,1.23.84c.34.3.6.65.78,1.05s.27.84.27,1.32c0,1-.33,1.79-.99,2.37s-1.52.99-2.58,1.23c-1.06.24-2.19.36-3.39.36-.64,0-1.35-.05-2.13-.15s-1.6-.24-2.46-.42-1.74-.4-2.64-.66c-.9-.26-1.81-.55-2.73-.87l.24,5.1c1.04.36,1.99.65,2.85.87.86.22,1.68.41,2.46.57.78.16,1.54.26,2.28.3s1.49.06,2.25.06c1.76,0,3.42-.17,4.98-.51,1.56-.34,2.92-.87,4.08-1.59s2.07-1.66,2.73-2.82c.66-1.16.99-2.54.99-4.14,0-1.2-.17-2.23-.51-3.09s-.81-1.61-1.41-2.25h0ZM381.33,84l-.42,4.92h16.98l.42-4.92h-16.98ZM29.04,139.59c1.24,2.34,1.86,5.09,1.86,8.25,0,3.32-.67,6.2-2.01,8.64s-3.21,4.32-5.61,5.64-5.16,1.98-8.28,1.98-5.64-.62-7.92-1.86-4.03-3.05-5.25-5.43c-1.22-2.38-1.83-5.21-1.83-8.49s.65-6.12,1.95-8.52c1.3-2.4,3.12-4.26,5.46-5.58s5.07-1.98,8.19-1.98,5.83.64,8.13,1.92,4.07,3.09,5.31,5.43h0ZM24.54,147.96c0-1.64-.18-3.13-.54-4.47s-.91-2.49-1.65-3.45-1.66-1.69-2.76-2.19-2.41-.75-3.93-.75c-1.92,0-3.57.4-4.95,1.2-1.38.8-2.45,2-3.21,3.6s-1.14,3.62-1.14,6.06.38,4.56,1.14,6.24c.76,1.68,1.8,2.94,3.12,3.78s2.88,1.26,4.68,1.26,3.4-.41,4.8-1.23c1.4-.82,2.49-2.07,3.27-3.75s1.17-3.78,1.17-6.3ZM50.88,132.69c-1.12.3-2.18.76-3.18,1.38-1,.62-1.94,1.37-2.82,2.25-.14.14-.28.3-.42.45v-4.47l-6.12.9v30.3h6.12v-22.67c.46-.32.93-.62,1.41-.88.62-.34,1.24-.63,1.86-.87.62-.24,1.25-.45,1.89-.63.64-.18,1.31-.31,2.01-.39.7-.08,1.43-.1,2.19-.06l.72-5.64c-1.32-.08-2.54.03-3.66.33ZM86.22,132.9h-7.5l-10.27,11.28h-2.21v-25.98l-6.12.9v44.4h6.12v-14.7h.1l12.26,14.7h7.92l-14.55-16.4s14.25-14.2,14.25-14.2ZM115.53,142.26c.5,2.16.61,4.64.33,7.44h-21.68c.08,1.53.29,2.86.65,3.96.46,1.4,1.14,2.51,2.04,3.33s2.01,1.4,3.33,1.74,2.88.51,4.68.51c.88,0,1.76-.05,2.64-.15.88-.1,1.74-.26,2.58-.48s1.65-.47,2.43-.75,1.55-.56,2.31-.84l-.42,4.62c-1.08.56-2.16,1.02-3.24,1.38s-2.23.63-3.45.81-2.63.27-4.23.27c-3.36,0-6.2-.59-8.52-1.77s-4.07-2.92-5.25-5.22-1.77-5.09-1.77-8.37c0-2.48.33-4.73.99-6.75.66-2.02,1.62-3.75,2.88-5.19,1.26-1.44,2.79-2.56,4.59-3.36s3.84-1.2,6.12-1.2,4.31.38,6.09,1.14c1.78.76,3.25,1.89,4.41,3.39s1.99,3.33,2.49,5.49h0ZM95.07,141.93c-.37.98-.61,2.17-.76,3.51h15.78c0-1.2-.14-2.33-.44-3.36-.46-1.6-1.27-2.85-2.43-3.75s-2.7-1.35-4.62-1.35-3.4.41-4.68,1.23c-1.28.82-2.23,2.06-2.85,3.72h0ZM142.32,149.7c-.6-.64-1.3-1.19-2.1-1.65-.8-.46-1.64-.85-2.52-1.17-.64-.2-1.27-.41-1.89-.63s-1.24-.42-1.86-.6c-.62-.18-1.22-.37-1.8-.57s-1.11-.42-1.59-.66c-.52-.28-.99-.58-1.41-.9-.42-.32-.76-.7-1.02-1.14-.26-.44-.39-.94-.39-1.5,0-.64.14-1.19.42-1.65s.7-.85,1.26-1.17c.56-.32,1.23-.56,2.01-.72s1.67-.24,2.67-.24c.44,0,.92.02,1.44.06s1.09.11,1.71.21c.62.1,1.24.23,1.86.39s1.25.34,1.89.54,1.22.42,1.74.66l.42-4.86c-.76-.32-1.51-.6-2.25-.84s-1.49-.44-2.25-.6-1.51-.27-2.25-.33-1.47-.09-2.19-.09c-1.8,0-3.44.19-4.92.57s-2.77.94-3.87,1.68c-1.1.74-1.95,1.68-2.55,2.82-.6,1.14-.9,2.49-.9,4.05,0,1.12.16,2.11.48,2.97.32.86.74,1.59,1.26,2.19.52.6,1.13,1.13,1.83,1.59.7.46,1.45.85,2.25,1.17.44.16.9.32,1.38.48.48.16.95.31,1.41.45s.91.28,1.35.42.87.28,1.29.42.83.27,1.23.39c.56.2,1.08.43,1.56.69.48.26.89.54,1.23.84s.6.65.78,1.05c.18.4.27.84.27,1.32,0,1-.33,1.79-.99,2.37s-1.52.99-2.58,1.23c-1.06.24-2.19.36-3.39.36-.64,0-1.35-.05-2.13-.15-.78-.1-1.6-.24-2.46-.42s-1.74-.4-2.64-.66c-.9-.26-1.81-.55-2.73-.87l.24,5.1c1.04.36,1.99.65,2.85.87s1.68.41,2.46.57c.78.16,1.54.26,2.28.3.74.04,1.49.06,2.25.06,1.76,0,3.42-.17,4.98-.51s2.92-.87,4.08-1.59,2.07-1.66,2.73-2.82c.66-1.16.99-2.54.99-4.14,0-1.2-.17-2.23-.51-3.09s-.81-1.61-1.41-2.25h0ZM167.25,158.67c-.34.06-.68.12-1.02.18-.34.06-.67.1-.99.12-.32.02-.62.03-.9.03-1.04,0-1.93-.18-2.67-.54s-1.31-.89-1.71-1.59c-.4-.7-.6-1.55-.6-2.55v-16.62h8.46l.66-4.8h-9.12v-9.48l-6.12,2.16v7.32h-4.62l-.66,4.8h5.28v17.88c0,1.36.18,2.53.54,3.51s.83,1.79,1.41,2.43,1.26,1.14,2.04,1.5,1.61.62,2.49.78,1.74.24,2.58.24c.64,0,1.27-.02,1.89-.06s1.19-.1,1.71-.18c.52-.08,1.01-.17,1.47-.27s.85-.19,1.17-.27l.36-4.98c-.2.08-.44.15-.72.21-.28.06-.59.12-.93.18h0ZM187.8,132.69c-1.12.3-2.18.76-3.18,1.38-1,.62-1.94,1.37-2.82,2.25-.14.14-.28.3-.42.45v-4.47l-6.12.9v30.3h6.12v-22.67c.46-.32.93-.62,1.41-.88.62-.34,1.24-.63,1.86-.87.62-.24,1.25-.45,1.89-.63.64-.18,1.31-.31,2.01-.39s1.43-.1,2.19-.06l.72-5.64c-1.32-.08-2.54.03-3.66.33ZM221.67,142.26c.5,2.16.61,4.64.33,7.44h-21.68c.08,1.53.29,2.86.65,3.96.46,1.4,1.14,2.51,2.04,3.33s2.01,1.4,3.33,1.74,2.88.51,4.68.51c.88,0,1.76-.05,2.64-.15.88-.1,1.74-.26,2.58-.48s1.65-.47,2.43-.75,1.55-.56,2.31-.84l-.42,4.62c-1.08.56-2.16,1.02-3.24,1.38s-2.23.63-3.45.81-2.63.27-4.23.27c-3.36,0-6.2-.59-8.52-1.77s-4.07-2.92-5.25-5.22-1.77-5.09-1.77-8.37c0-2.48.33-4.73.99-6.75s1.62-3.75,2.88-5.19c1.26-1.44,2.79-2.56,4.59-3.36s3.84-1.2,6.12-1.2,4.31.38,6.09,1.14,3.25,1.89,4.41,3.39,1.99,3.33,2.49,5.49h0ZM201.21,141.93c-.37.98-.61,2.17-.76,3.51h15.78c0-1.2-.14-2.33-.44-3.36-.46-1.6-1.27-2.85-2.43-3.75s-2.7-1.35-4.62-1.35-3.4.41-4.68,1.23c-1.28.82-2.23,2.06-2.85,3.72h0ZM245.3,158.67l-1.02.18c-.34.06-.67.1-.99.12-.32.02-.62.03-.9.03-1.04,0-1.93-.18-2.67-.54s-1.31-.89-1.71-1.59-.6-1.55-.6-2.55v-16.62h8.46l.66-4.8h-9.12v-9.48l-6.12,2.16v7.32h-4.62l-.66,4.8h5.28v17.88c0,1.36.18,2.53.54,3.51s.83,1.79,1.41,2.43,1.26,1.14,2.04,1.5,1.61.62,2.49.78,1.74.24,2.58.24c.64,0,1.27-.02,1.89-.06.62-.04,1.19-.1,1.71-.18.52-.08,1.01-.17,1.47-.27s.85-.19,1.17-.27l.36-4.98c-.2.08-.44.15-.72.21-.28.06-.59.12-.93.18h0Z"/>
</svg>